# xmcd
#
# Track frame offsets: 
#        182
#        11120
#        20607
#        29682
#        41907
#        55032
#        70445
#        85670
#        96170
#        107382
#        118107
#        126620
#        140007
#        146832
#        156470
#        169257
#        179757
#        188720
#        199407
#        208182
#        217070
#        225395
#        230645
#        243995
#        255545
#
# Disc length: 3552 seconds
#
# Revision: 0
# Processed by: cddbd v1.4PL0 Copyright (c) Steve Scherf et al.
# Submitted via: ExactAudioCopy v0.90b3
#
DISCID=870dde19
DTITLE=Jim Reeves - Welcome To My World - Disc 12
DYEAR=1900
DGENRE=Country
TTITLE0=Lonely Music (1963)
TTITLE1=There's A Heartache Following Me (1963)
TTITLE2=You Kept Me Awake Last Night (1963)
TTITLE3=The Talking Walls (1963)
TTITLE4=Before I Died (1963)
TTITLE5=Little Ole Dime (1963)
TTITLE6=Bottle, Take Effect (1963)
TTITLE7=The World You Left Behind (1963)
TTITLE8=I've Enjoyed As Much Of This As I Can (1963)
TTITLE9=Don't Let Me Cross Over (1963)
TTITLE10=From A Jack To A King (1963)
TTITLE11=Silver Bells (1963)
TTITLE12=Born To Be Lucky (1963)
TTITLE13=Kimberley Jim (1963)
TTITLE14=Could I Be Falling In Love (1963)
TTITLE15=The Search Is Ended (1963)
TTITLE16=Strike It Rich (1963)
TTITLE17=I Grew Up (1963)
TTITLE18=Diamonds In The Sand (1963)
TTITLE19=A Stranger's Just A Friend (1963)
TTITLE20=Roving Gambler (1963)
TTITLE21=Dolly With The Dimpled Knees (1963)
TTITLE22=A Nickel Piece Of Candy (1963)
TTITLE23=Love Is No Excuse (& Dottie West) (1964)
TTITLE24=Look Who's Talking (& Dottie West) (1964)
EXTD=
EXTT0=
EXTT1=
EXTT2=
EXTT3=
EXTT4=
EXTT5=
EXTT6=
EXTT7=
EXTT8=
EXTT9=
EXTT10=
EXTT11=
EXTT12=
EXTT13=
EXTT14=
EXTT15=
EXTT16=
EXTT17=
EXTT18=
EXTT19=
EXTT20=
EXTT21=
EXTT22=
EXTT23=
EXTT24=
PLAYORDER=
